<svg id="Group_92213" data-name="Group 92213" xmlns="http://www.w3.org/2000/svg" width="86.635" height="41.373" viewBox="0 0 86.635 41.373">
  <g id="Group_68391" data-name="Group 68391">
    <g id="Group_68384" data-name="Group 68384">
      <g id="Group_68383" data-name="Group 68383">
        <g id="Group_68379" data-name="Group 68379" transform="translate(36.412)">
          <circle id="Ellipse_10171" data-name="Ellipse 10171" cx="1.489" cy="1.489" r="1.489" fill="#d23638"/>
          <circle id="Ellipse_10172" data-name="Ellipse 10172" cx="1.489" cy="1.489" r="1.489" transform="translate(0 12.798)" fill="#d23638"/>
          <path id="Path_120553" data-name="Path 120553" d="M470.352,102.705a1.489,1.489,0,1,1,1.49-1.489A1.488,1.488,0,0,1,470.352,102.705Z" transform="translate(-468.863 -74.131)" fill="#d23638"/>
          <path id="Path_120554" data-name="Path 120554" d="M470.352,115.815a1.489,1.489,0,1,1,1.49-1.489A1.489,1.489,0,0,1,470.352,115.815Z" transform="translate(-468.863 -74.443)" fill="#d23638"/>
        </g>
        <g id="Group_68380" data-name="Group 68380" transform="translate(24.275)">
          <circle id="Ellipse_10173" data-name="Ellipse 10173" cx="1.489" cy="1.489" r="1.489" fill="#d23638"/>
          <circle id="Ellipse_10174" data-name="Ellipse 10174" cx="1.489" cy="1.489" r="1.489" transform="translate(0 12.798)" fill="#d23638"/>
          <path id="Path_120555" data-name="Path 120555" d="M457.919,102.705a1.489,1.489,0,1,1,1.49-1.489A1.488,1.488,0,0,1,457.919,102.705Z" transform="translate(-456.43 -74.131)" fill="#d23638"/>
          <path id="Path_120556" data-name="Path 120556" d="M457.919,115.815a1.489,1.489,0,1,1,1.49-1.489A1.489,1.489,0,0,1,457.919,115.815Z" transform="translate(-456.43 -74.443)" fill="#d23638"/>
        </g>
        <g id="Group_68381" data-name="Group 68381" transform="translate(12.137)">
          <circle id="Ellipse_10175" data-name="Ellipse 10175" cx="1.489" cy="1.489" r="1.489" fill="#d23638"/>
          <circle id="Ellipse_10176" data-name="Ellipse 10176" cx="1.489" cy="1.489" r="1.489" transform="translate(0 12.798)" fill="#d23638"/>
          <path id="Path_120557" data-name="Path 120557" d="M445.486,102.705a1.489,1.489,0,1,1,1.49-1.489A1.488,1.488,0,0,1,445.486,102.705Z" transform="translate(-443.997 -74.131)" fill="#d23638"/>
          <path id="Path_120558" data-name="Path 120558" d="M445.486,115.815a1.489,1.489,0,1,1,1.49-1.489A1.489,1.489,0,0,1,445.486,115.815Z" transform="translate(-443.997 -74.443)" fill="#d23638"/>
        </g>
        <g id="Group_68382" data-name="Group 68382" transform="translate(0 0)">
          <circle id="Ellipse_10177" data-name="Ellipse 10177" cx="1.489" cy="1.489" r="1.489" fill="#d23638"/>
          <circle id="Ellipse_10178" data-name="Ellipse 10178" cx="1.489" cy="1.489" r="1.489" transform="translate(0 12.798)" fill="#d23638"/>
          <path id="Path_120559" data-name="Path 120559" d="M433.053,102.705a1.489,1.489,0,1,1,1.49-1.489A1.488,1.488,0,0,1,433.053,102.705Z" transform="translate(-431.564 -74.131)" fill="#d23638"/>
          <path id="Path_120560" data-name="Path 120560" d="M433.053,115.815a1.489,1.489,0,1,1,1.49-1.489A1.489,1.489,0,0,1,433.053,115.815Z" transform="translate(-431.564 -74.443)" fill="#d23638"/>
        </g>
      </g>
    </g>
    <g id="Group_68390" data-name="Group 68390" transform="translate(47.244)">
      <g id="Group_68389" data-name="Group 68389">
        <g id="Group_68385" data-name="Group 68385" transform="translate(36.412)">
          <circle id="Ellipse_10179" data-name="Ellipse 10179" cx="1.489" cy="1.489" r="1.489" transform="translate(0)" fill="#d23638"/>
          <circle id="Ellipse_10180" data-name="Ellipse 10180" cx="1.489" cy="1.489" r="1.489" transform="translate(0 12.798)" fill="#d23638"/>
          <path id="Path_120561" data-name="Path 120561" d="M518.747,102.705a1.489,1.489,0,1,1,1.49-1.489A1.488,1.488,0,0,1,518.747,102.705Z" transform="translate(-517.258 -74.131)" fill="#d23638"/>
          <path id="Path_120562" data-name="Path 120562" d="M518.747,115.815a1.489,1.489,0,1,1,1.49-1.489A1.489,1.489,0,0,1,518.747,115.815Z" transform="translate(-517.258 -74.443)" fill="#d23638"/>
        </g>
        <g id="Group_68386" data-name="Group 68386" transform="translate(24.275)">
          <circle id="Ellipse_10181" data-name="Ellipse 10181" cx="1.489" cy="1.489" r="1.489" transform="translate(0)" fill="#d23638"/>
          <circle id="Ellipse_10182" data-name="Ellipse 10182" cx="1.489" cy="1.489" r="1.489" transform="translate(0 12.798)" fill="#d23638"/>
          <path id="Path_120563" data-name="Path 120563" d="M506.314,102.705a1.489,1.489,0,1,1,1.49-1.489A1.488,1.488,0,0,1,506.314,102.705Z" transform="translate(-504.825 -74.131)" fill="#d23638"/>
          <path id="Path_120564" data-name="Path 120564" d="M506.314,115.815a1.489,1.489,0,1,1,1.49-1.489A1.489,1.489,0,0,1,506.314,115.815Z" transform="translate(-504.825 -74.443)" fill="#d23638"/>
        </g>
        <g id="Group_68387" data-name="Group 68387" transform="translate(12.137)">
          <circle id="Ellipse_10183" data-name="Ellipse 10183" cx="1.489" cy="1.489" r="1.489" transform="translate(0)" fill="#d23638"/>
          <circle id="Ellipse_10184" data-name="Ellipse 10184" cx="1.489" cy="1.489" r="1.489" transform="translate(0 12.798)" fill="#d23638"/>
          <path id="Path_120565" data-name="Path 120565" d="M493.882,102.705a1.489,1.489,0,1,1,1.489-1.489A1.489,1.489,0,0,1,493.882,102.705Z" transform="translate(-492.392 -74.131)" fill="#d23638"/>
          <path id="Path_120566" data-name="Path 120566" d="M493.882,115.815a1.489,1.489,0,1,1,1.489-1.489A1.489,1.489,0,0,1,493.882,115.815Z" transform="translate(-492.392 -74.443)" fill="#d23638"/>
        </g>
        <g id="Group_68388" data-name="Group 68388">
          <circle id="Ellipse_10185" data-name="Ellipse 10185" cx="1.489" cy="1.489" r="1.489" transform="translate(0)" fill="#d23638"/>
          <circle id="Ellipse_10186" data-name="Ellipse 10186" cx="1.489" cy="1.489" r="1.489" transform="translate(0 12.798)" fill="#d23638"/>
          <path id="Path_120567" data-name="Path 120567" d="M481.449,102.705a1.489,1.489,0,1,1,1.489-1.489A1.489,1.489,0,0,1,481.449,102.705Z" transform="translate(-479.959 -74.131)" fill="#d23638"/>
          <path id="Path_120568" data-name="Path 120568" d="M481.449,115.815a1.489,1.489,0,1,1,1.489-1.489A1.489,1.489,0,0,1,481.449,115.815Z" transform="translate(-479.959 -74.443)" fill="#d23638"/>
        </g>
      </g>
    </g>
  </g>
</svg>
