<svg xmlns="http://www.w3.org/2000/svg" width="46" height="45" viewBox="0 0 46 45">
  <g id="insta" transform="translate(-0.5)">
    <g id="Group_91075" data-name="Group 91075" transform="translate(0 0)">
      <ellipse id="Ellipse_5174" data-name="Ellipse 5174" cx="23" cy="22.5" rx="23" ry="22.5" transform="translate(0.5)" fill="#d83434"/>
    </g>
    <g id="instagram" transform="translate(10.128 9.388)">
      <path id="Path_129673" data-name="Path 129673" d="M12.842,0C9.353,0,8.92.016,7.55.075a9.522,9.522,0,0,0-3.12.6A6.206,6.206,0,0,0,2.156,2.156,6.206,6.206,0,0,0,.674,4.43a9.521,9.521,0,0,0-.6,3.12C.011,8.92,0,9.353,0,12.842s.016,3.922.075,5.292a9.521,9.521,0,0,0,.6,3.12,6.206,6.206,0,0,0,1.482,2.274A6.275,6.275,0,0,0,4.43,25.01a9.522,9.522,0,0,0,3.12.6c1.37.064,1.8.075,5.292.075s3.922-.016,5.292-.075a9.522,9.522,0,0,0,3.12-.6,6.579,6.579,0,0,0,3.756-3.756,9.521,9.521,0,0,0,.6-3.12c.064-1.37.075-1.8.075-5.292s-.016-3.922-.075-5.292a9.521,9.521,0,0,0-.6-3.12,6.275,6.275,0,0,0-1.482-2.274A6.206,6.206,0,0,0,21.253.674a9.522,9.522,0,0,0-3.12-.6C16.764.011,16.331,0,12.842,0Zm0,2.312c3.43,0,3.837.016,5.19.075a7.074,7.074,0,0,1,2.381.444,4.094,4.094,0,0,1,1.482.958,3.917,3.917,0,0,1,.958,1.482A7.074,7.074,0,0,1,23.3,7.652c.059,1.354.075,1.76.075,5.19s-.016,3.837-.08,5.19a7.176,7.176,0,0,1-.449,2.381A4.107,4.107,0,0,1,21.88,21.9a3.981,3.981,0,0,1-1.477.958,7.155,7.155,0,0,1-2.392.444c-1.364.059-1.766.075-5.2.075s-3.837-.016-5.2-.08a7.259,7.259,0,0,1-2.392-.449,4,4,0,0,1-1.477-.963A3.929,3.929,0,0,1,2.777,20.4a7.259,7.259,0,0,1-.449-2.392c-.048-1.348-.064-1.766-.064-5.185s.016-3.837.064-5.2a7.259,7.259,0,0,1,.449-2.392A3.807,3.807,0,0,1,3.74,3.756a3.807,3.807,0,0,1,1.477-.963,7.135,7.135,0,0,1,2.376-.449c1.364-.048,1.766-.064,5.2-.064Zm0,3.938a6.592,6.592,0,1,0,6.592,6.592A6.592,6.592,0,0,0,12.842,6.25Zm0,10.873a4.281,4.281,0,1,1,4.281-4.281A4.279,4.279,0,0,1,12.842,17.123Zm8.4-11.135A1.541,1.541,0,1,1,19.7,4.447,1.541,1.541,0,0,1,21.237,5.988Z" transform="translate(0 0)" fill="#fff"/>
      <path id="Path_129674" data-name="Path 129674" d="M0,0H25.684V25.684H0Z" transform="translate(0 0)" fill="none"/>
    </g>
  </g>
</svg>
