<svg id="linkedin" xmlns="http://www.w3.org/2000/svg" width="45.205" height="45.205" viewBox="0 0 45.205 45.205">
  <g id="Group_91077" data-name="Group 91077" transform="translate(0 0)">
    <g id="Group_91075" data-name="Group 91075">
      <path id="Path_130835" data-name="Path 130835" d="M22.6,0A22.6,22.6,0,1,1,0,22.6,22.6,22.6,0,0,1,22.6,0Z" fill="#d83434"/>
    </g>
  </g>
  <g id="linkedin-2" data-name="linkedin" transform="translate(11.392 8.865)">
    <path id="Path_129677" data-name="Path 129677" d="M22.23,13.075v8.219H17.463V13.626c0-1.927-.691-3.241-2.411-3.241a2.6,2.6,0,0,0-2.445,1.743,3.184,3.184,0,0,0-.161,1.158v8.008H7.679s.067-12.986,0-14.334h4.767V8.993l-.028.045h.028V8.993a4.741,4.741,0,0,1,4.3-2.372C19.88,6.621,22.23,8.67,22.23,13.075ZM2.7.05a2.485,2.485,0,1,0-.061,4.956h.033A2.486,2.486,0,1,0,2.7.05ZM.284,21.294H5.045V6.961H.284Z" transform="translate(0 -0.022)" fill="#fff"/>
    <path id="Path_129678" data-name="Path 129678" d="M0,0H26.73V26.73H0Z" fill="none"/>
  </g>
</svg>
