<svg xmlns="http://www.w3.org/2000/svg" width="356.175" height="68.689" viewBox="0 0 356.175 68.689">
  <g id="logo" transform="translate(0 -0.161)">
    <g id="Group_91169" data-name="Group 91169" transform="translate(60.95 12.437)">
      <path id="Path_130845" data-name="Path 130845" d="M98.835,63.264V60.689h11.173v1.664c0,7.21-3.922,11.885-10.618,11.885-7.211,0-11.687-5.467-11.687-12.4,0-7.013,4.635-12.44,11.846-12.44,5.783,0,8.4,3.13,8.4,3.13l-1.624,2.1a9.644,9.644,0,0,0-6.774-2.614c-5.586,0-8.993,4.437-8.993,9.825,0,5.349,3.289,9.786,8.835,9.786,4.674,0,7.844-3.289,7.844-8.2v-.159h-8.4m14.616,10.42h2.733V49.715H113.45Zm19.978-8.28c0-4-2.615-6.537-5.665-6.537S122.1,61.4,122.1,65.4c0,4.041,2.615,6.458,5.665,6.458S133.428,69.445,133.428,65.4Zm-5.665,8.676c-4.635,0-8.36-3.328-8.36-8.636s3.724-8.8,8.36-8.8c4.6,0,8.4,3.487,8.4,8.8A8.22,8.22,0,0,1,127.763,74.08Zm19.786-2.3c3.13,0,5.507-2.654,5.507-6.419,0-3.8-2.377-6.417-5.507-6.417-3.05,0-5.626,2.377-5.626,6.417S144.5,71.782,147.549,71.782Zm-5.467-22.067V59.54h.119s1.268-2.892,5.943-2.892c4.279,0,7.686,3.526,7.686,8.715,0,5.27-3.407,8.716-7.765,8.716-4.872,0-6.3-3.288-6.3-3.288h-.119l-.317,2.892h-1.981V49.715ZM166.8,58.946c-3.13,0-5.546,2.614-5.546,6.417,0,3.765,2.416,6.419,5.546,6.419,3.09,0,5.665-2.377,5.665-6.419s-2.576-6.417-5.665-6.417Zm6.3-1.9H175V73.684h-1.9l-.4-2.654h-.119s-1.545,3.05-6.259,3.05c-4.4,0-7.845-3.446-7.845-8.716,0-5.189,3.407-8.715,7.726-8.715,4.833,0,6.378,3.051,6.378,3.051h.119l.4-2.654Zm6.134,16.639h2.733V49.715h-2.733Zm17.509-2.575h4.992c5.348,0,9.429-3.447,9.429-9.31s-4.081-9.31-9.429-9.31h-4.992V71.109Zm5.15,2.575H193.97V49.913h7.923c7.212,0,12.085,4.6,12.085,11.885S209.1,73.684,201.893,73.684Zm22.794-14.737c-3.13,0-5.547,2.614-5.547,6.417,0,3.765,2.417,6.419,5.547,6.419,3.09,0,5.665-2.377,5.665-6.419S227.776,58.946,224.687,58.946Zm6.3-1.9h1.9V73.684h-1.9l-.4-2.654h-.12s-1.545,3.05-6.259,3.05c-4.4,0-7.844-3.446-7.844-8.716,0-5.189,3.407-8.715,7.725-8.715,4.833,0,6.378,3.051,6.378,3.051h.12Zm7.227-5.071h2.734v5.071H245.9v2.218h-4.952v9.786c0,1.744.793,2.694,2.456,2.694a5.481,5.481,0,0,0,2.457-.753l.911,1.981a6.3,6.3,0,0,1-3.605,1.109c-3.407,0-4.952-1.941-4.952-5.07V59.262h-3.129V57.045h3.129V51.974m17.55,6.972c-3.13,0-5.547,2.614-5.547,6.417,0,3.765,2.417,6.419,5.547,6.419,3.09,0,5.665-2.377,5.665-6.419S258.851,58.946,255.762,58.946Zm6.3-1.9h1.9V73.684h-1.9l-.4-2.654h-.12s-1.545,3.05-6.259,3.05c-4.4,0-7.844-3.446-7.844-8.716,0-5.189,3.407-8.715,7.725-8.715,4.833,0,6.378,3.051,6.378,3.051h.12Zm23.173,17.193c-7.052,0-11.846-5.467-11.846-12.4,0-7.013,4.794-12.44,11.846-12.44,5.348,0,7.883,3.051,7.883,3.051l-1.585,2.139a9.079,9.079,0,0,0-6.259-2.575c-5.348,0-9.033,4.437-9.033,9.825,0,5.349,3.685,9.786,9.033,9.786a9.078,9.078,0,0,0,6.259-2.576l1.585,2.139s-2.535,3.051-7.883,3.051m12.023-10.855h9.43c-.4-2.892-1.942-4.4-4.556-4.4C299.476,58.986,297.772,60.412,297.257,63.384Zm5.508,10.736c-5.191,0-8.4-3.526-8.4-8.715,0-5.031,3.051-8.756,7.805-8.756,4.793,0,7.329,3.645,7.329,8.28V65.6H297.1c.079,4.081,2.575,6.181,5.824,6.181a7.138,7.138,0,0,0,4.715-1.585l1.029,1.981S306.924,74.119,302.764,74.119Zm11.7-17.074.238,2.456h.2c1.109-1.783,2.813-2.853,5.824-2.853,4.357,0,6.893,3.129,6.893,7.646v9.39h-2.734V64.611c0-3.209-1.624-5.665-4.754-5.665a4.846,4.846,0,0,0-4.872,4.754v9.984h-2.734V57.045h1.942M332.3,51.974h2.734v5.071h4.952v2.218h-4.952v9.786c0,1.744.792,2.694,2.456,2.694a5.48,5.48,0,0,0,2.457-.753l.911,1.981a6.3,6.3,0,0,1-3.605,1.109c-3.407,0-4.952-1.941-4.952-5.07V59.262h-3.129V57.045H332.3V51.974m18.1,7.25a4.533,4.533,0,0,0-4.476,4.635v9.825h-2.734V57.045h1.942l.238,2.931h.158A5.012,5.012,0,0,1,350.365,57h.951v2.219H350.4m4.832,4.16h9.429c-.4-2.892-1.942-4.4-4.555-4.4C357.455,58.986,355.752,60.412,355.237,63.384Zm5.508,10.736c-5.191,0-8.4-3.526-8.4-8.715,0-5.031,3.051-8.756,7.8-8.756,4.794,0,7.329,3.645,7.329,8.28V65.6h-12.4c.079,4.081,2.575,6.181,5.823,6.181a7.139,7.139,0,0,0,4.715-1.585l1.029,1.981s-1.743,1.941-5.9,1.941Zm15.844-2.377c2.733,0,3.8-1.03,3.8-2.457,0-3.724-10.7-1.941-10.7-7.923,0-2.614,1.9-4.715,6.141-4.715a14.305,14.305,0,0,1,6.576,1.347l-1.11,2.338a10.273,10.273,0,0,0-5.229-1.347c-2.576,0-3.843.753-3.843,2.3,0,3.565,10.7,1.505,10.7,7.884,0,2.576-1.744,4.913-6.419,4.913-4.715,0-6.813-2.06-6.813-2.06l1.227-1.9a10.437,10.437,0,0,0,5.666,1.625M88.129,38.6l2.778-3.954a10.443,10.443,0,0,0,7.551,3.245c2.822,0,4.138-1.248,4.138-2.639,0-4.129-13.684-1.25-13.684-10.19,0-3.956,3.421-7.233,9.015-7.233a13.229,13.229,0,0,1,9.267,3.316l-2.819,3.775a10.211,10.211,0,0,0-6.909-2.6c-2.14,0-3.347.928-3.347,2.352,0,3.742,13.643,1.213,13.643,10.085,0,4.349-3.138,7.629-9.515,7.629-4.593,0-7.877-1.535-10.117-3.783m28.039,3.352V22.635H109.22V18.183h18.958v4.452h-6.914V41.948h-5.1m21.717,0V22.581H130.92V18.115h19.006v4.466H143V41.946h-5.113m19.507-13.971a3.984,3.984,0,0,0-4.218,3.679h8.508a3.96,3.96,0,0,0-4.291-3.679M148.459,33.3a8.8,8.8,0,0,1,8.934-9.036c5.185,0,8.652,3.857,8.652,9.468V34.8h-12.83c.321,2.108,2.04,3.857,4.967,3.857a7.226,7.226,0,0,0,4.575-1.678l2.033,3a10.741,10.741,0,0,1-7.107,2.4c-5.253,0-9.223-3.544-9.223-9.082m20.869,4.327V18.115h4.536V36.407c0,1.106.569,1.929,1.571,1.929a2.287,2.287,0,0,0,1.573-.532l.963,3.463a5.66,5.66,0,0,1-3.787,1.112c-3.177,0-4.857-1.646-4.857-4.755M187.8,27.976a3.975,3.975,0,0,0-4.213,3.679h8.5a3.949,3.949,0,0,0-4.285-3.679m-8.93,5.321a8.8,8.8,0,0,1,8.93-9.036c5.18,0,8.644,3.857,8.644,9.468V34.8H183.62c.321,2.108,2.033,3.857,4.966,3.857a7.225,7.225,0,0,0,4.573-1.678l2.04,3a10.771,10.771,0,0,1-7.116,2.4c-5.249,0-9.214-3.544-9.214-9.082m42.263,8.649v-10.9c0-1.61-.714-2.753-2.571-2.753a4.578,4.578,0,0,0-3.573,2V41.946h-4.575v-10.9c0-1.61-.712-2.753-2.573-2.753a4.708,4.708,0,0,0-3.573,2V41.946h-4.536V24.687h4.536V26.9a7.734,7.734,0,0,1,5.648-2.642c2.537,0,4.179,1.179,4.784,3.106a7.425,7.425,0,0,1,5.935-3.106c3.177,0,5.075,1.68,5.075,5.215v12.47h-4.577m16.9-13.971a3.979,3.979,0,0,0-4.217,3.679h8.5a3.952,3.952,0,0,0-4.286-3.679M229.1,33.3a8.805,8.805,0,0,1,8.935-9.036c5.181,0,8.645,3.857,8.645,9.468V34.8H233.852c.326,2.108,2.038,3.857,4.962,3.857a7.206,7.206,0,0,0,4.575-1.678l2.034,3a10.733,10.733,0,0,1-7.105,2.4c-5.251,0-9.22-3.544-9.22-9.082m32.728,3.074V30.259a4.928,4.928,0,0,0-3.89-1.963c-2.614,0-4.4,2.036-4.4,5,0,3,1.783,5.039,4.4,5.039a4.909,4.909,0,0,0,3.89-1.965m0,5.575V39.727a6.647,6.647,0,0,1-5.324,2.651c-4.322,0-7.642-3.291-7.642-9.082,0-5.607,3.247-9.036,7.642-9.036a6.547,6.547,0,0,1,5.324,2.642V18.115H266.4V41.946h-4.576M291.8,36.371V30.3a4.92,4.92,0,0,0-3.889-2c-2.61,0-4.4,2.036-4.4,5,0,3,1.787,5.039,4.4,5.039a4.892,4.892,0,0,0,3.889-1.965m0,5.575V39.727a6.635,6.635,0,0,1-5.321,2.651c-4.323,0-7.645-3.291-7.645-9.082,0-5.607,3.248-9.036,7.645-9.036A6.583,6.583,0,0,1,291.8,26.9V24.687h4.573V41.946H291.8m-20.838,0h4.408V25.169H270.96Z" transform="translate(-87.703 -17.825)" fill="#5a5a5a" fill-rule="evenodd"/>
    </g>
    <path id="Path_130846" data-name="Path 130846" d="M26.251,14.856S24.682,4.772,24.668.208a26.377,26.377,0,0,1,3.163,0c0,4.564-1.58,14.648-1.58,14.648m2.525.4C28.8,10.859,28.1,4.726,28.4.252a24.084,24.084,0,0,1,3.122.471A85.718,85.718,0,0,1,28.777,15.26m-5.049,0A86.491,86.491,0,0,1,20.986.723,24.188,24.188,0,0,1,24.111.252c.3,4.474-.412,10.607-.383,15.008m2.523,19.309s1.575,10.086,1.587,14.645q-.793.053-1.587.051c-.524,0-1.056-.014-1.583-.051.014-4.559,1.583-14.645,1.583-14.645m-2.523-.4c-.029,4.4.678,10.53.383,15a24.315,24.315,0,0,1-3.125-.474,86.513,86.513,0,0,1,2.742-14.531m5.049,0A85.739,85.739,0,0,1,31.518,48.7a24.206,24.206,0,0,1-3.122.474c-.3-4.475.408-10.6.381-15m-9.5-16.428S11.036,11.722,7.808,8.5q.521-.594,1.081-1.151t1.154-1.086c3.22,3.232,9.232,11.472,9.232,11.472m2.074-1.5C18.265,13.111,13.424,9.271,10.474,5.9a24.956,24.956,0,0,1,2.541-1.872,86.912,86.912,0,0,1,8.335,12.21m-3.573,3.58a87.427,87.427,0,0,1-12.2-8.346A23.5,23.5,0,0,1,7.443,8.93c3.371,2.956,7.21,7.793,10.334,10.887M33.228,31.686s8.235,6.014,11.465,9.235q-.521.595-1.083,1.152t-1.152,1.083c-3.218-3.229-9.23-11.47-9.23-11.47m-2.081,1.5c3.095,3.136,7.932,6.966,10.89,10.341a25.079,25.079,0,0,1-2.544,1.87,87.762,87.762,0,0,1-8.346-12.211" transform="translate(-1.7 0)" fill="#d62828" fill-rule="evenodd"/>
    <g id="Group_91170" data-name="Group 91170" transform="translate(0 23.131)">
      <path id="Path_130847" data-name="Path 130847" d="M33.029,6.69a87.585,87.585,0,0,1,12.208,8.342,23.293,23.293,0,0,1-1.878,2.539c-3.371-2.947-7.205-7.788-10.329-10.88m-18.334-4.9S4.612,3.37.055,3.374Q0,2.585,0,1.793C0,1.26.021.733.055.213c4.557,0,14.64,1.58,14.64,1.58" transform="translate(0 -0.213)" fill="#dc4033" fill-rule="evenodd"/>
    </g>
    <path id="Path_130848" data-name="Path 130848" d="M15.139,23.881c-4.4-.027-10.532.681-15,.383a24.181,24.181,0,0,1,.474-3.125,87.081,87.081,0,0,1,14.531,2.742m0,5.056A85.773,85.773,0,0,1,.608,31.669a23.667,23.667,0,0,1-.474-3.115c4.473-.3,10.6.41,15,.383M34.45,26.408s10.084-1.58,14.645-1.585a26,26,0,0,1,0,3.165c-4.561,0-14.645-1.58-14.645-1.58m-.405,2.528c4.4.027,10.536-.68,15.009-.383a23.9,23.9,0,0,1-.474,3.115,85.907,85.907,0,0,1-14.535-2.733m0-5.056a87.218,87.218,0,0,1,14.535-2.742,24.425,24.425,0,0,1,.474,3.125c-4.473.3-10.612-.41-15.009-.383m-16.428,9.5S11.6,41.625,8.385,44.854Q7.791,44.33,7.23,43.77T6.149,42.618c3.228-3.22,11.467-9.235,11.467-9.235m-1.5-2.079C12.994,34.4,9.155,39.239,5.784,42.185a22.936,22.936,0,0,1-1.869-2.539,87.038,87.038,0,0,1,12.2-8.342m3.573,3.577a86.647,86.647,0,0,1-8.335,12.211,25.045,25.045,0,0,1-2.541-1.87c2.949-3.375,7.79-7.205,10.876-10.341M31.569,19.435s6.012-8.241,9.23-11.472q.6.522,1.152,1.086T43.034,10.2c-3.231,3.219-11.465,9.235-11.465,9.235m1.5,2.079c3.124-3.095,6.959-7.931,10.329-10.887a23.874,23.874,0,0,1,1.878,2.541A87.979,87.979,0,0,1,33.07,21.514m-3.582-3.58a88.032,88.032,0,0,1,8.346-12.21A24.989,24.989,0,0,1,40.378,7.6c-2.958,3.372-7.8,7.212-10.89,10.338m214.345-.906a2.624,2.624,0,0,1,5.247,0,2.624,2.624,0,1,1-5.247,0" transform="translate(-0.041 -1.697)" fill="#d62828" fill-rule="evenodd"/>
  </g>
</svg>
