<svg xmlns="http://www.w3.org/2000/svg" width="96.592" height="96.591" viewBox="0 0 96.592 96.591">
  <g id="video" transform="translate(-734.709 -7475.709)">
    <g id="Group_2154" data-name="Group 2154" transform="translate(726 7467)">
      <g id="Group_2152" data-name="Group 2152" transform="translate(0)">
        <g id="Group_2017" data-name="Group 2017" transform="translate(32.461 32.461)">
          <circle id="Ellipse_67" data-name="Ellipse 67" cx="24.544" cy="24.544" r="24.544" fill="#d23638"/>
        </g>
        <g id="Ellipse_75" data-name="Ellipse 75" transform="translate(24.544 24.544)" fill="none" stroke="#d23638" stroke-width="1" opacity="0.53">
          <circle cx="32.461" cy="32.461" r="32.461" stroke="none"/>
          <circle cx="32.461" cy="32.461" r="31.961" fill="none"/>
        </g>
        <g id="Path_129172" data-name="Path 129172" transform="translate(16.626 16.626)" fill="none" opacity="0.35">
          <path d="M40.774,0A40.774,40.774,0,1,1,0,40.774,40.774,40.774,0,0,1,40.774,0Z" stroke="none"/>
          <path d="M 40.77423095703125 1 C 35.4043083190918 1 30.19554138183594 2.051483154296875 25.29262161254883 4.125244140625 C 20.55644226074219 6.12847900390625 16.30271911621094 8.996482849121094 12.64961242675781 12.64961242675781 C 8.996482849121094 16.30271911621094 6.12847900390625 20.55644226074219 4.125244140625 25.29262161254883 C 2.051483154296875 30.19554138183594 1 35.4043083190918 1 40.77423095703125 C 1 46.1441535949707 2.051483154296875 51.35292053222656 4.125244140625 56.25584411621094 C 6.12847900390625 60.99201965332031 8.996482849121094 65.24574279785156 12.64961242675781 68.89884948730469 C 16.30271911621094 72.55197143554688 20.55644226074219 75.41998291015625 25.29262161254883 77.4232177734375 C 30.19554138183594 79.49697875976562 35.4043083190918 80.5484619140625 40.77423095703125 80.5484619140625 C 46.1441535949707 80.5484619140625 51.35292053222656 79.49697875976562 56.25584411621094 77.4232177734375 C 60.99201965332031 75.41998291015625 65.24574279785156 72.55197143554688 68.89884948730469 68.89884948730469 C 72.55197143554688 65.24574279785156 75.41998291015625 60.99201965332031 77.4232177734375 56.25584411621094 C 79.49697875976562 51.35292053222656 80.5484619140625 46.1441535949707 80.5484619140625 40.77423095703125 C 80.5484619140625 35.4043083190918 79.49697875976562 30.19554138183594 77.4232177734375 25.29262161254883 C 75.41998291015625 20.55644226074219 72.55197143554688 16.30271911621094 68.89884948730469 12.64961242675781 C 65.24574279785156 8.996482849121094 60.99201965332031 6.12847900390625 56.25584411621094 4.125244140625 C 51.35292053222656 2.051483154296875 46.1441535949707 1 40.77423095703125 1 M 40.77423095703125 0 C 63.29320907592773 0 81.5484619140625 18.25525283813477 81.5484619140625 40.77423095703125 C 81.5484619140625 63.29320907592773 63.29320907592773 81.5484619140625 40.77423095703125 81.5484619140625 C 18.25525283813477 81.5484619140625 0 63.29320907592773 0 40.77423095703125 C 0 18.25525283813477 18.25525283813477 0 40.77423095703125 0 Z" stroke="none" fill="#d23638"/>
        </g>
        <g id="Ellipse_77" data-name="Ellipse 77" transform="translate(8.709 8.709)" fill="none" stroke="#d23638" stroke-width="1" opacity="0.24">
          <circle cx="48.296" cy="48.296" r="48.296" stroke="none"/>
          <circle cx="48.296" cy="48.296" r="47.796" fill="none"/>
        </g>
      </g>
      <g id="Group_2153" data-name="Group 2153" transform="translate(50.1 46.851)">
        <path id="Icon_awesome-play" data-name="Icon awesome-play" d="M16.833,8.516,2.872.263A1.893,1.893,0,0,0,0,1.9V18.4a1.9,1.9,0,0,0,2.872,1.638l13.961-8.25A1.9,1.9,0,0,0,16.833,8.516Z" transform="translate(0 -0.002)" fill="#fff"/>
      </g>
    </g>
  </g>
</svg>
